<svg width="612" height="612" viewBox="0 0 612 612" fill="none" xmlns="http://www.w3.org/2000/svg">
    <g opacity="0.1">
        <path d="M587.8 278.1C587.6 280.7 587.4 283.3 587.2 286C582.2 350.1 557.3 405.3 513.2 451.8C485.2 481.4 451.8 502.8 413 515.7C394.2 521.9 374.9 525.7 355.1 526.9C325.9 528.8 297.3 525.8 269.4 516.8C229.1 503.9 195.5 481.2 170.4 446.8C154.9 425.6 144.7 402 139.3 376.4C135.6 358.8 134 341 135.2 323C136.5 303.8 141.6 285.5 149.8 268.1C160.7 245.1 176 225.6 196.5 210.4C214.6 197 234.7 188.7 257.1 186.3C282.4 183.6 307.1 186.3 330.3 197.5C360.2 211.9 378.2 235.8 384.4 268.3C385.6 274.5 385.8 281 386.4 287.4C386.5 288 386.5 288.6 386.5 289.3C389.3 289.3 391.7 288.3 393.8 286.6C398.1 283.1 400.6 278.4 402.4 273.3C408.8 255.1 407.6 237.2 400.5 219.5C393.9 203 383.5 189.2 370.5 177.2C347.4 156 320.3 142.9 289.5 137.4C263.4 132.7 237.7 134.8 212.4 142.3C172.1 154.2 138.8 176.8 111.4 208.3C85.5004 238.2 68.7004 272.8 60.1004 311.3C55.1004 333.7 53.4004 356.3 54.5004 379.2C56.6004 421.6 68.3004 461.5 87.2004 499.4C98.8004 522.6 112.7 544.2 128.9 564.5C129.2 564.9 129.5 565.3 129.5 566C127.4 564.2 125.3 562.4 123.3 560.5C92.8004 532.8 68.0004 500.8 50.5004 463.4C39.6004 440.1 32.1004 415.8 27.9004 390.4C25.0004 372.4 23.7004 354.4 24.2004 336.2C25.1004 305.9 31.1004 276.7 42.3004 248.6C60.1004 203.6 87.8004 165.8 125.9 135.8C150.9 116.1 178.7 101.9 209.4 93.3001C231.2 87.2001 253.4 84.4001 276 84.7001C312.3 85.3001 346.8 93.2001 378.7 110.7C425.8 136.6 456.8 175.5 470.7 227.6C476.1 247.7 478.2 268.2 476.7 289C474.7 317.3 465.2 343.1 449.2 366.5C435.6 386.4 418.3 402.2 396.8 413.2C382.9 420.3 368.2 424.6 352.7 426.1C331.7 428 311 426.2 291.2 418.7C257.2 406 236 382 227.9 346.6C226.3 339.5 225.6 332.2 225.5 324.9C225.5 324.3 225.4 323.6 225.4 322.9C223 322.8 221.1 323.6 219.2 324.8C216.4 326.6 214.3 329.2 212.7 332.1C208.8 338.8 206.9 346.1 206 353.6C203.3 375.2 209.9 394.4 221.7 412.1C234.8 431.6 252.3 446.3 272.8 457.5C290.1 466.9 308.5 473 327.9 475.7C345.1 478.1 362.2 477.7 379.3 474.6C426.2 466 464.9 442.9 496.8 407.9C525.8 376.1 544 338.7 552.6 296.6C557.6 272 558.8 247.3 556.6 222.3C553.4 186.1 543.3 151.9 527.8 119.2C515.6 93.5001 500.6 69.7001 482.9 47.5001C482.6 47.1001 482.3 46.7001 482 46.1001C482.3 46.3001 482.6 46.4001 482.9 46.6001C529.3 87.0001 562.5 135.8 578.5 195.7C583.3 213.5 586.1 231.6 587.2 250C587.4 253 587.6 256.1 587.8 259.1C587.8 265.4 587.8 271.7 587.8 278.1Z" fill="#E2E4E8"/>
    </g>
    <path d="M131.4 224.7C138.2 229.7 144.9 234.6 151.6 239.5C153.9 241.2 156.3 242.8 158.6 244.5C159.9 245.4 160.3 246.7 159.8 248.2C159.7 248.5 159.6 248.8 159.4 249.1C150.7 263.6 148.4 279.6 148.7 296.2C149.2 320 155.5 342.4 166.2 363.6C167.4 365.9 168.8 368.1 169.9 370.5C170.4 371.4 170.5 372.6 170.5 373.7C170.6 384.7 170.6 395.6 170.7 406.6C170.7 410.7 171 414.7 170.9 418.8C170.9 426.4 170.7 434 170.6 441.6C170.6 445.9 170.4 450.3 170.6 454.6C170.9 458.9 167.7 460.4 164.1 459.5C160.6 458.6 157.2 457.2 153.9 455.6C139.8 448.9 127.8 439.3 117.2 428C94.1004 403.5 78.2004 374.9 70.5004 342C67.6004 329.5 66.4004 316.8 67.9004 303.9C68.2004 301.7 68.5004 299.5 69.0004 297.3C69.3004 296.1 68.9004 295.5 67.9004 294.9C61.0004 290.7 54.2004 286.4 47.4004 282C45.9004 281 44.5004 279.8 43.3004 278.4C42.7004 277.8 42.5004 276.7 42.5004 275.8C42.3004 269.9 42.1004 264 42.0004 258.1C41.7004 245.9 41.5004 233.7 41.3004 221.5C41.3004 221 41.0004 220.3 40.5004 220C37.3004 217.8 34.1004 215.7 30.9004 213.6C29.6004 212.7 29.1004 211.5 29.1004 210C29.1004 207.6 29.1004 205.2 29.1004 202.8C29.1004 188.9 29.1004 175 29.1004 161.2C29.1004 159.7 29.4004 158.2 29.5004 156.7C29.5004 156.3 29.3004 155.7 29.0004 155.4C25.7004 152.9 22.3004 150.5 19.2004 148C18.3004 147.3 17.6004 146 17.6004 144.9C16.9004 132.9 16.3004 120.8 15.6004 108.8C14.9004 96.4 14.2004 84 13.5004 71.6C13.5004 70.7 13.5004 69.8 13.4004 68.9C13.1004 66.4 14.1004 64.7 16.5004 63.7C18.7004 62.8 20.0004 64.1 21.4004 65.4C60.9004 103.2 100.4 141 139.9 178.8C143.9 182.7 148 186.5 152 190.4C154.5 192.8 154.3 195.9 151.6 198.1C142.8 205.2 136.6 214.4 131.4 224.3C131.5 224.4 131.5 224.5 131.4 224.7Z" fill="#E2E4E8"/>
    <path d="M480.8 224.7C475.4 214.7 469.3 205.5 460.5 198.3C457.5 195.9 457.3 192.9 460.2 190.2C496.7 155.2 533.2 120.3 569.8 85.2999C576.9 78.4999 584 71.6999 591.1 64.9999C593.2 62.9999 594.4 62.9999 596.8 64.4999C598.1 65.2999 598.7 66.4999 598.6 68.0999C598.4 73.1999 598.1 78.1999 597.9 83.2999C597.4 91.8999 596.9 100.5 596.5 109.1C595.9 121.1 595.2 133.1 594.6 145C594.5 146.6 593.7 147.6 592.4 148.5C589.1 150.7 586 153.2 582.9 155.7C582.6 155.9 582.5 156.5 582.6 156.9C582.7 158 583 159.1 583 160.1C583 176.7 583 193.3 583 209.9C583 211.9 582.2 213.2 580.3 214.2C577.2 216 574.2 218.3 571.3 220.4C571 220.7 570.8 221.4 570.8 221.9C570.4 239.2 569.9 256.5 569.8 273.9C569.8 277.8 567.9 280.1 565 282C558.1 286.4 551.2 290.7 544.2 295C543.1 295.7 542.8 296.3 543.1 297.6C545.3 308.3 545.4 319.2 543.7 330C537 372.7 516.9 408.2 485.2 437.3C475.1 446.6 463.8 454 450.8 458.8C448.8 459.5 446.9 460.2 444.7 459.5C442.4 458.7 441.5 457.9 441.5 455.4C441.5 451.3 441.5 447.2 441.5 443C441.5 436.3 441.5 429.5 441.5 422.8C441.5 406.9 441.6 391 441.6 375.1C441.6 372.9 442.1 371 443.3 368.9C451.2 354.2 457.2 338.8 460.6 322.3C462.9 311.1 464 299.8 463.5 288.4C462.9 274.6 460.2 261.4 453 249.4C451.6 247.1 452.3 245.7 454.4 244.2C459.5 240.6 464.5 236.9 469.6 233.2C473.1 230.3 476.8 227.5 480.8 224.7Z" fill="#E2E4E8"/>
    <path d="M122.3 89.5C126.4 91.2 130.5 92.8 134.5 94.4C185.3 115 236.1 135.6 286.9 156.3C288.8 157.1 288.9 157.1 287.6 158.9C284.2 163.5 280.9 168.1 277.5 172.6C276.6 173.8 276.2 175.1 276.2 176.7C276.3 194.9 276.5 213 276.6 231.2C276.6 234 276.5 236.7 276.7 239.5C276.8 241.3 276.1 242.4 274.7 243.4C267.8 248.2 261 253.1 254.1 257.9C252.7 258.9 251.4 260 249.9 260.9C248.4 261.8 247.9 263 247.9 264.6C247.5 277.9 247.1 291.2 246.6 304.5C246.5 308.6 246.4 312.6 246.2 316.7C246.1 319.1 245.7 319.8 243.8 321.8C241.2 319.7 238.5 317.7 235.8 315.6C220.3 303.5 204.9 291.4 189.4 279.4C188.3 278.6 188 277.8 188.1 276.4C189.3 262.7 188.5 249.1 185.8 235.6C179.5 203.3 166.3 174.1 145.9 148.3C137.3 137.4 127.5 127.7 116.1 119.7C115.4 119.2 115.3 118.7 115.5 117.9C117.7 108.8 119.8 99.8 121.9 90.7C122 90.3 122.1 90 122.3 89.5Z" fill="#E2E4E8"/>
    <path d="M368.2 321.7C366.5 320.3 365.9 318.6 365.8 316.6C365.5 306.6 365.2 296.6 364.8 286.6C364.6 279.3 364.3 272 364.1 264.7C364.1 263 363.5 261.9 362 260.9C353.7 255.2 345.6 249.3 337.3 243.5C335.8 242.5 335.2 241.3 335.2 239.5C335.4 218.9 335.5 198.3 335.7 177.7C335.7 175.7 335.4 174 334.1 172.3C330.7 167.9 327.5 163.3 324.2 158.8C323 157.2 323.1 157.2 324.9 156.4C379.2 134.4 433.4 112.3 487.7 90.3C488.3 90.1 488.9 89.8 489.6 89.5C489.9 90.7 490.2 91.7 490.5 92.8C492.4 101.2 494.4 109.5 496.3 117.9C496.4 118.4 496.1 119.3 495.8 119.5C478.2 132 464.5 148.1 453.2 166.2C439.2 188.7 429.8 212.9 425.4 239.1C423.3 251.7 422.7 264.4 423.8 277.1C423.8 277.7 423.4 278.4 422.9 278.8C409 289.7 395.1 300.5 381.2 311.4C376.9 314.9 372.6 318.3 368.2 321.7Z" fill="#E2E4E8"/>
    <path d="M430.401 379.9C431.001 402.5 431.601 425.2 432.201 447.8C432.301 450.9 432.401 454 432.501 457C432.601 458.4 432.101 459.5 431.001 460.4C400.801 487.6 370.701 514.9 340.601 542.2C339.401 543.3 338.201 544.3 337.001 545.5C336.201 546.3 335.401 546.1 335.001 545.2C334.601 544.1 334.201 542.9 334.201 541.8C334.001 534.5 333.801 527.3 333.901 520C334.201 471.4 334.501 422.7 334.801 374.1C334.801 373 335.401 372.4 336.101 371.8C351.701 358.7 367.401 345.6 383.001 332.5C395.401 322.1 407.901 311.7 420.301 301.3C421.001 300.7 421.701 300.2 422.401 299.6C423.501 298.7 424.801 298.3 426.201 298.9C427.501 299.5 428.001 300.7 428.101 302.1C428.201 303.7 428.301 305.2 428.401 306.8C428.901 323.2 429.301 339.7 429.801 356.1C430.001 364.1 430.201 372 430.401 379.9Z" fill="#E2E4E8"/>
    <path d="M277.9 458.3C277.9 485.3 277.9 512.4 277.9 539.4C277.9 540.9 277.9 542.4 277.6 543.9C277.2 546.2 276.1 546.5 274.4 545C248.8 521.8 223.2 498.7 197.6 475.5C192.1 470.6 186.7 465.6 181.2 460.7C179.9 459.6 179.5 458.4 179.5 456.7C180.2 431.8 180.9 406.8 181.6 381.9C182.1 364.6 182.5 347.4 183 330.1C183.3 321 183.6 312 183.9 302.9C184 301.3 184.2 299.7 185.9 299C187.6 298.2 189 299.1 190.3 300.2C209.4 316.2 228.5 332.1 247.5 348.1C256.9 356 266.3 363.9 275.7 371.7C276.8 372.6 277.2 373.5 277.2 374.9C277.3 402.7 277.5 430.5 277.7 458.3C277.8 458.3 277.8 458.3 277.9 458.3Z" fill="#E2E4E8"/>
    <path d="M347.9 305.5C347.9 315.1 347.9 324.7 347.9 334.3C347.9 335.4 347.6 336.1 346.7 336.8C333.7 347 320.8 357.2 307.8 367.4C306.1 368.8 305.9 368.8 304.2 367.4C291.3 357.2 278.4 347.1 265.5 336.9C264.6 336.2 264.2 335.5 264.2 334.3C264 315.2 263.7 296.1 263.5 277C263.5 275.8 263.8 275 264.8 274.2C278.1 263.4 291.3 252.6 304.5 241.7C305.8 240.7 306.5 240.7 307.8 241.7C321.1 252.7 334.5 263.6 347.8 274.6C348.3 275 348.7 276 348.7 276.7C348.8 286.3 348.7 295.9 348.7 305.5C348.4 305.5 348.1 305.5 347.9 305.5Z" fill="#E2E4E8"/>
    <path d="M306 566C305.6 565.4 305.301 565 305.101 564.5C300.601 555.9 296 547.4 291.5 538.8C291 537.9 290.701 536.7 290.701 535.7C290.301 486.5 289.9 437.2 289.5 388C289.5 387.2 289.4 386.4 289.5 385.7C289.6 385.2 289.8 384.6 290 384.1C290.5 384.3 291.1 384.4 291.5 384.7C295.4 387.7 299.301 390.8 303.201 393.9C305.801 395.9 306.3 395.9 308.9 393.9C312.7 390.9 316.5 387.9 320.4 384.9C320.9 384.5 321.601 384.4 322.101 384.1C322.301 384.7 322.5 385.4 322.5 386C322.4 402.2 322.201 418.4 322.101 434.7C321.801 468.3 321.6 502 321.3 535.6C321.3 536.6 321.101 537.7 320.601 538.6C316.001 547.3 311.4 556 306.8 564.8C306.6 565.1 306.4 565.4 306 566Z" fill="#E2E4E8"/>
    <path d="M306.001 174.7C309.801 178.2 313.201 181.8 317.001 184.8C320.401 187.5 321.501 190.8 321.401 195C321.201 205.4 321.401 215.8 321.401 226.1C321.401 227.2 321.101 228.4 320.801 229.4C320.501 230.3 319.801 230.6 318.801 229.9C315.201 227.2 311.501 224.5 307.901 221.8C306.301 220.6 305.901 220.6 304.301 221.8C300.601 224.6 296.901 227.3 293.301 230C292.501 230.6 291.901 230.5 291.501 229.6C291.101 228.7 290.801 227.7 290.801 226.8C290.801 214.5 290.901 202.3 290.901 190C290.901 189.5 291.101 188.8 291.401 188.4C296.201 183.9 301.001 179.4 306.001 174.7Z" fill="#E2E4E8"/>
</svg>